<svg width="16" height="16" viewBox="0 0 16 16" fill="none" xmlns="http://www.w3.org/2000/svg">
  <!-- Background circle -->
  <circle cx="8" cy="8" r="8" fill="#3b82f6"/>
  
  <!-- AI/Agent brain icon -->
  <path d="M8 2C6.5 2 5.2 2.8 4.5 4C4.2 4.5 4 5 4 5.5C4 6.5 4.5 7.5 5.5 8C4.5 8.5 4 9.5 4 10.5C4 11.5 4.5 12.5 5.5 13C6.5 13.5 7.2 14 8 14C8.8 14 9.5 13.5 10.5 13C11.5 12.5 12 11.5 12 10.5C12 9.5 11.5 8.5 10.5 8C11.5 7.5 12 6.5 12 5.5C12 5 11.8 4.5 11.5 4C10.8 2.8 9.5 2 8 2Z" fill="white"/>
  
  <!-- Neural network dots -->
  <circle cx="6" cy="6" r="0.8" fill="#3b82f6"/>
  <circle cx="10" cy="6" r="0.8" fill="#3b82f6"/>
  <circle cx="6" cy="10" r="0.8" fill="#3b82f6"/>
  <circle cx="10" cy="10" r="0.8" fill="#3b82f6"/>
  <circle cx="8" cy="8" r="0.8" fill="#3b82f6"/>
</svg>